<?xml version="1.0" encoding="UTF-8"?>
<svg id="Layer_1" data-name="Layer 1" xmlns="http://www.w3.org/2000/svg" viewBox="0 0 64 64">
  <defs>
    <style>
      .cls-1 {
        fill: #4ba250;
      }
    </style>
  </defs>
  <path class="cls-1" d="M35.29,9.97c-6.59-6.59-17.31-6.59-23.89,0-6.59,6.59-6.59,17.31,0,23.9,5.99,5.99,15.39,6.51,22,1.6.27.19.67.49,1.28,1.01-.11,1.08.27,2.18,1.04,2.96s1.93,1.18,3.06,1.03c3.31,3.42,9.85,10.59,13.62,15.25.18.23.45.37.74.39l.52-.03,3.55-3.55.32-.41-.1-.89-.3-.24c-4.61-3.74-11.68-10.19-15.26-13.63.15-1.13-.22-2.25-1.03-3.06-.78-.78-1.89-1.16-2.96-1.05-.52-.61-.83-1.02-1.01-1.28,4.91-6.61,4.39-16.01-1.61-22ZM32.79,31.37c-5.2,5.2-13.64,5.2-18.84,0-5.2-5.2-5.2-13.64,0-18.84,5.2-5.2,13.64-5.2,18.84,0,5.2,5.2,5.2,13.64,0,18.84Z"/>
</svg>