<?xml version="1.0" encoding="UTF-8"?>
<svg id="Layer_1" xmlns="http://www.w3.org/2000/svg" xmlns:xlink="http://www.w3.org/1999/xlink" version="1.1" viewBox="0 0 1200 353">
  <!-- Generator: Adobe Illustrator 30.1.0, SVG Export Plug-In . SVG Version: 2.1.1 Build 136)  -->
  <defs>
    <style>
      .st0, .st1 {
        fill: none;
        stroke: #00b86c;
        stroke-miterlimit: 10;
        stroke-width: 3.64px;
      }

      .st1 {
        filter: url(#drop-shadow-1);
      }
    </style>
    <filter id="drop-shadow-1" x="0" y="19.87" width="1200" height="330.53" filterUnits="userSpaceOnUse">
      <feOffset dx="9.29" dy="9.29"/>
      <feGaussianBlur result="blur" stdDeviation="9.29"/>
      <feFlood flood-color="#000" flood-opacity=".12"/>
      <feComposite in2="blur" operator="in"/>
      <feComposite in="SourceGraphic"/>
    </filter>
  </defs>
  <line class="st0" x1="1200" y1="13.84" y2="13.84"/>
  <path class="st0" d="M0,21.68,1200,21.68,0,6.01h1200"/>
  <path class="st1" d="M1200,21.68h-242.09c-.09,0-.17.07-.18.16-6.51,61.04-23.13,151.24-23.81,201.09,0,.06.03.12.09.15,8.68,4.83,14.63,14.03,14.63,24.72s-5.67,19.45-14.02,24.38c-.06.03-.09.1-.09.17.82,11.5,2.2,20.3,4.39,24.97.02.03.02.07.01.1-3.37,17.34-4.9,34.37-3.89,50.97,0,.1-.07.19-.18.19h-28.87c-.1,0-.18-.09-.18-.19,1.01-16.6-.52-33.62-3.89-50.97,0-.04,0-.07.01-.1,2.19-4.67,3.57-13.47,4.39-24.97,0-.07-.03-.13-.09-.17-8.35-4.92-14.02-13.94-14.02-24.38s5.95-19.89,14.64-24.72c.06-.03.09-.09.09-.16-.79-50.07-17.31-140.06-23.82-201.08,0-.09-.09-.16-.18-.16H330.74c-.09,0-.17.07-.18.16-6.51,61.04-23.13,151.23-23.81,201.09,0,.06.03.12.09.15,8.68,4.83,14.63,14.03,14.63,24.72s-5.67,19.45-14.02,24.38c-.06.03-.09.1-.09.17.82,11.5,2.2,20.3,4.39,24.97.02.03.02.07.01.1-3.37,17.34-4.9,34.37-3.89,50.97,0,.1-.07.19-.18.19h-28.87c-.1,0-.18-.09-.18-.19,1.01-16.6-.52-33.62-3.89-50.97,0-.04,0-.07.01-.1,2.19-4.67,3.57-13.47,4.39-24.97,0-.07-.03-.13-.09-.17-8.35-4.92-14.02-13.94-14.02-24.38s5.95-19.89,14.64-24.72c.06-.03.09-.09.09-.16-.79-50.07-17.31-140.06-23.82-201.08,0-.09-.09-.16-.18-.16H0"/>
</svg>