<?xml version="1.0" encoding="UTF-8"?>
<svg id="Layer_1" data-name="Layer 1" xmlns="http://www.w3.org/2000/svg" viewBox="0 0 477.24 263.7">
  <defs>
    <style>
      .cls-1 {
        stroke-miterlimit: 10;
      }

      .cls-1, .cls-2 {
        fill: none;
        stroke: #10a544;
        stroke-width: 6px;
      }

      .cls-2 {
        stroke-linejoin: round;
      }
    </style>
  </defs>
  <path class="cls-1" d="M425.44,131.8c0-18.41-4.35-27.93-8.96-38-6.18-13.52-13.17-28.83-13.23-72.31,0-.26-.21-.48-.48-.48H0"/>
  <path class="cls-2" d="M0,3.03h447.25s0,102.22,0,102.22c14.66,0,26.54,11.88,26.54,26.54"/>
  <path class="cls-1" d="M437.89,131.8c0-5.17,4.19-9.35,9.35-9.35,5.17,0,9.35,4.19,9.35,9.35"/>
  <path class="cls-1" d="M425.44,131.85c0,18.41-4.35,27.93-8.96,38-6.18,13.52-13.17,28.83-13.23,72.31,0,.26-.21.48-.48.48H0"/>
  <path class="cls-2" d="M0,260.62h447.25s0-102.22,0-102.22c14.66,0,26.54-11.88,26.54-26.54"/>
  <path class="cls-1" d="M437.89,131.86c0,5.17,4.19,9.35,9.35,9.35,5.17,0,9.35-4.19,9.35-9.35"/>
</svg>