<?xml version="1.0" encoding="UTF-8"?>
<svg id="Layer_1" xmlns="http://www.w3.org/2000/svg" xmlns:xlink="http://www.w3.org/1999/xlink" version="1.1" viewBox="0 0 1200 152.46">
  <!-- Generator: Adobe Illustrator 30.1.0, SVG Export Plug-In . SVG Version: 2.1.1 Build 136)  -->
  <defs>
    <style>
      .st0 {
        filter: url(#drop-shadow-1);
      }

      .st0, .st1, .st2 {
        fill: none;
        stroke: #10a544;
        stroke-miterlimit: 10;
        stroke-width: 3.35px;
      }

      .st1 {
        filter: url(#drop-shadow-2);
      }

      .st2 {
        filter: url(#drop-shadow-3);
      }
    </style>
    <filter id="drop-shadow-1" x="0" y="23.24" width="1200" height="123.99" filterUnits="userSpaceOnUse">
      <feOffset dx="11.29" dy="11.29"/>
      <feGaussianBlur result="blur" stdDeviation="11.29"/>
      <feFlood flood-color="#000" flood-opacity=".12"/>
      <feComposite in2="blur" operator="in"/>
      <feComposite in="SourceGraphic"/>
    </filter>
    <filter id="drop-shadow-2" x="0" y="5.89" width="1200" height="123.99" filterUnits="userSpaceOnUse">
      <feOffset dx="11.29" dy="11.29"/>
      <feGaussianBlur result="blur1" stdDeviation="11.29"/>
      <feFlood flood-color="#000" flood-opacity=".12"/>
      <feComposite in2="blur1" operator="in"/>
      <feComposite in="SourceGraphic"/>
    </filter>
    <filter id="drop-shadow-3" x="0" y="14.41" width="1200" height="123.99" filterUnits="userSpaceOnUse">
      <feOffset dx="11.29" dy="11.29"/>
      <feGaussianBlur result="blur2" stdDeviation="11.29"/>
      <feFlood flood-color="#000" flood-opacity=".12"/>
      <feComposite in2="blur2" operator="in"/>
      <feComposite in="SourceGraphic"/>
    </filter>
  </defs>
  <path class="st0" d="M1200,145.56c-236.48-.28-319.78-38.34-393.31-71.94-54.81-25.05-106.59-48.7-206.7-48.7s-153.09,23.76-208,48.91C318.85,107.32,235.99,145.28,0,145.56"/>
  <path class="st1" d="M1200,128.21c-236.48-.28-319.78-38.34-393.31-71.94-54.81-25.05-106.59-48.7-206.7-48.7s-153.09,23.76-208,48.91C318.85,89.98,235.99,127.93,0,128.21"/>
  <path class="st2" d="M1200,136.73c-236.48-.28-319.78-38.34-393.31-71.94-54.81-25.05-106.59-48.7-206.7-48.7s-153.09,23.76-208,48.91C318.85,98.49,235.99,136.45,0,136.73"/>
</svg>